<svg version="1.1" id="Layer_1" xmlns="http://www.w3.org/2000/svg" xmlns:xlink="http://www.w3.org/1999/xlink" x="0px" y="0px"
	 viewBox="0 0 112 93.5" style="enable-background:new 0 0 112 93.5;" preserveAspectRatio="none">
<g>
	<g>
		<path fill="#00CCF7" d="M107.2,49.6c-0.6,20-17.1,34.7-35.7,39.1c-19.9,4.7-43-1-56.8-16.6C3.1,58.8,1.4,39.7,12.1,25.3
			C25.1,7.8,49.5,2.6,70,7.8C89.4,12.8,107.1,28.4,107.2,49.6c0,0.6,2.9,0.1,2.9-0.8C110,27.1,91.5,11.4,71.6,6.5
			C52.1,1.6,29.2,5.8,14.4,19.9c-14.5,13.8-16.4,35.4-4,51.2c13.4,17.1,37.5,23.1,58.2,19.2c20.8-3.9,40.9-18.9,41.5-41.6
			C110.1,48.3,107.3,48.7,107.2,49.6z"/>
	</g>
</g>
<g>
	<g>
		<path fill="#00CCF7" d="M105.2,33.9c4.1,40.9-54.2,70.6-86.8,48.4C3.2,71.9,0.7,52.4,8.8,36.6c9.5-18.7,30.1-31.1,50.7-33
			C80,1.6,102.2,11.7,105.2,33.9c0.2,1.2,3.1,0.5,2.9-0.8C105.3,12.6,86.1,1.7,66.7,1.4C45,1.1,22.8,11.9,10.2,29.6
			C-0.9,45.1-3,67.1,12.2,80.8c15.7,14.1,40,13,58.3,5.3c20.7-8.7,40-29,37.6-52.9C108,32,105.1,32.7,105.2,33.9z"/>
	</g>
</g>
</svg>
