<?xml version="1.0" encoding="utf-8"?>
<!-- Generator: Adobe Illustrator 23.0.1, SVG Export Plug-In . SVG Version: 6.00 Build 0)  -->
<svg version="1.1" id="Layer_1" xmlns="http://www.w3.org/2000/svg" xmlns:xlink="http://www.w3.org/1999/xlink" x="0px" y="0px"
	 viewBox="0 0 275.69 21.5" style="enable-background:new 0 0 275.69 21.5;" xml:space="preserve">
<style type="text/css">
	.st0{fill:#00CCF7;}
</style>
<g>
	<g>
		<g>
			<path class="st0" d="M3.87,6.39c29.87,0.25,59.75,0.5,89.62,0.75c47.2,0.4,94.41,0.79,141.61,1.19
				c10.87,0.09,21.74,0.18,32.61,0.27c2.29,0.02,6.51-0.8,7.66-3.13c1.15-2.32-0.98-3.25-3.1-3.27c-29.87-0.25-59.75-0.5-89.62-0.75
				c-47.2-0.4-94.41-0.79-141.61-1.19C30.16,0.18,19.29,0.09,8.42,0C6.13-0.02,1.92,0.8,0.76,3.13C-0.39,5.45,1.74,6.37,3.87,6.39
				L3.87,6.39z"/>
		</g>
	</g>
	<g>
		<g>
			<path class="st0" d="M3.2,15.1c29.86-0.71,59.73-1.42,89.59-2.13c47.19-1.12,94.37-2.24,141.56-3.36
				c10.87-0.26,21.73-0.52,32.6-0.77c2.01-0.05,6.63-0.87,7.75-2.8c1.2-2.05-1.04-2.05-2.77-2.01c-29.86,0.71-59.73,1.42-89.59,2.13
				C135.15,7.28,87.97,8.4,40.78,9.52c-10.87,0.26-21.73,0.52-32.6,0.77c-2.01,0.05-6.63,0.87-7.75,2.8
				C-0.76,15.14,1.47,15.14,3.2,15.1L3.2,15.1z"/>
		</g>
	</g>
	<g>
		<g>
			<path class="st0" d="M3.2,16.83c25.49,1.36,50.98,2.71,76.47,4.07c3.73,0.2,7.45,0.4,11.18,0.59c4.1,0.22,12.41-5.66,4.64-6.08
				C70,14.06,44.51,12.71,19.02,11.35c-3.73-0.2-7.45-0.4-11.18-0.59C3.74,10.54-4.57,16.42,3.2,16.83L3.2,16.83z"/>
		</g>
	</g>
</g>
</svg>
