<?xml version="1.0" encoding="utf-8"?>
<!-- Generator: Adobe Illustrator 23.0.6, SVG Export Plug-In . SVG Version: 6.00 Build 0)  -->
<svg version="1.1" id="aea1287f-452e-45cb-848a-574dc7109f00"
	 xmlns="http://www.w3.org/2000/svg" xmlns:xlink="http://www.w3.org/1999/xlink" x="0px" y="0px" width="119.6px" height="109.2px"
	 viewBox="0 0 119.6 109.2" enable-background="new 0 0 119.6 109.2" xml:space="preserve">
<title>circle-drawn</title>
<g>
	<path fill="#00CCF7" d="M106.3,35.6c8.1,19.9,4.1,43.1-12.1,57.7c-15.9,14.4-39.7,16.4-58.4,6.2C16.9,89.2,5.6,67.5,8.6,46
		C11.7,24.7,28.1,7.7,49.3,4c24-4.1,47.4,9.9,57.1,31.9c0.6,1.3,2.5,0.2,1.9-1.1C99.4,14.3,78.8,0.4,56.3,1
		C34,1.7,14.6,16.5,8.1,37.9c-6.5,21.5,1.8,45.4,19.5,59s42.7,15.4,61.7,3.2c21.6-13.9,28.9-41.7,19.3-65
		C108,33.7,105.8,34.2,106.3,35.6z"/>
	<path fill="#00CCF7" d="M115.5,43.4c5.8,47.2-59.7,71.8-94.4,47.9C3.4,79.2-1.6,56.6,8.7,37.8C19.5,18.2,42.2,6.9,64.2,6.5
		c23.2-0.4,47.5,12.6,51.3,37.1c0.2,1.4,2.4,0.8,2.2-0.6C114.3,21.2,94.6,7.4,73.6,4.8c-23.4-2.9-48.8,6.7-63,25.9
		C-2,47.8-2.6,71.3,12.6,87c16.4,17,43.4,19.5,64.8,12c23.1-8.1,43.5-29.7,40.3-55.6C117.6,42,115.3,41.9,115.5,43.4z"/>
</g>
</svg>
