<?xml version="1.0" encoding="utf-8"?>
<!-- Generator: Adobe Illustrator 23.0.1, SVG Export Plug-In . SVG Version: 6.00 Build 0)  -->
<svg version="1.1" id="Layer_1" xmlns="http://www.w3.org/2000/svg" xmlns:xlink="http://www.w3.org/1999/xlink" x="0px" y="0px"
	 viewBox="0 0 187.5 95.06" style="enable-background:new 0 0 187.5 95.06;" xml:space="preserve">
<style type="text/css">
	.st0{fill:#00CCF7;}
</style>
<g>
	<g>
		<g>
			<path class="st0" d="M184.6,51.74c-0.43,11.24-8.98,19.68-17.96,25.35c-13.65,8.62-30.02,12.79-45.86,14.94
				c-32.29,4.39-70.96,1.62-99.15-16.34C13.16,70.3,4.57,62.42,3.1,51.95C1.57,41.09,8.78,31.89,17.04,25.78
				C29.5,16.56,45.18,11.89,60.27,9.24c18.13-3.19,36.85-3.44,55.09-1.08c17.25,2.23,35.11,6.78,49.99,16.1
				C175.07,30.34,184.58,39.49,184.6,51.74c0,0.59,2.9,0.14,2.9-0.78c-0.02-11.9-9.04-21-18.42-27.09
				c-13.26-8.61-29.02-13.24-44.48-15.9c-19.16-3.3-38.97-3.56-58.21-0.85c-15.69,2.21-31.7,6.4-45.48,14.45
				C11.72,26.95,2.04,35.04,0.27,46.17C-1.47,57.14,5.52,66.6,13.71,73.05c12.36,9.73,28.16,14.97,43.36,18.14
				c18.96,3.95,38.65,4.75,57.89,2.71c17.74-1.88,36.08-6.12,51.61-15.21c10.22-5.98,20.44-15.07,20.92-27.73
				C187.52,50.4,184.64,50.8,184.6,51.74z"/>
		</g>
	</g>
	<g>
		<g>
			<path class="st0" d="M182.96,34.46c1.97,11.04-4.32,20.91-12.06,28.2c-11.05,10.41-25.49,17.14-39.78,21.81
				C99.81,94.71,61.88,97.81,30.59,85.73c-10.36-4-21.75-10.69-25.76-21.7C1.07,53.7,5.76,43.31,12.76,35.61
				c9.55-10.51,22.76-17.46,35.85-22.51C65.62,6.54,83.87,3.04,102.05,2.11c17.92-0.92,36.69,0.57,53.59,6.98
				C167.39,13.54,180.08,21.29,182.96,34.46c0.26,1.17,3.16,0.43,2.9-0.78c-2.55-11.64-12.7-19.31-22.99-24.06
				c-14.95-6.91-31.89-9.31-48.23-9.59C81.25-0.55,42.35,7.19,16.2,29.36C7.92,36.38,0.06,46.3,0.55,57.76
				c0.49,11.42,9.23,19.92,18.63,25.22c13.51,7.63,29.51,10.66,44.83,11.69c19.45,1.3,39.23-0.76,58.08-5.7
				c17.28-4.53,34.79-11.62,48.54-23.29c9.32-7.92,17.53-19.15,15.23-32C185.65,32.52,182.74,33.23,182.96,34.46z"/>
		</g>
	</g>
</g>
</svg>
