<?xml version="1.0" encoding="utf-8"?>
<!-- Generator: Adobe Illustrator 23.0.1, SVG Export Plug-In . SVG Version: 6.00 Build 0)  -->
<svg version="1.1" id="Layer_1" xmlns="http://www.w3.org/2000/svg" xmlns:xlink="http://www.w3.org/1999/xlink" x="0px" y="0px"
	 viewBox="0 0 201.15 26.05" style="enable-background:new 0 0 201.15 26.05;" xml:space="preserve">
<style type="text/css">
	.st0{fill:#00CCF7;}
</style>
<g>
	<g>
		<g>
			<path class="st0" d="M3.84,6.39c21.26,0.32,42.52,0.65,63.78,0.97c34.07,0.52,68.14,1.04,102.22,1.56
				c7.77,0.12,15.55,0.24,23.32,0.36c2.29,0.03,6.51-0.81,7.66-3.13c1.16-2.33-0.98-3.23-3.1-3.27
				c-21.26-0.32-42.52-0.65-63.78-0.97C99.87,1.4,65.8,0.88,31.72,0.36C23.95,0.24,16.18,0.12,8.4,0C6.11-0.03,1.89,0.81,0.74,3.13
				C-0.42,5.46,1.72,6.36,3.84,6.39L3.84,6.39z"/>
		</g>
	</g>
	<g>
		<g>
			<path class="st0" d="M3.31,17.96c21.25-0.91,42.51-1.83,63.76-2.74c34.06-1.47,68.12-2.93,102.18-4.4
				c7.77-0.33,15.54-0.67,23.31-1c2.03-0.09,6.61-0.85,7.75-2.8c1.18-2.03-1.02-2.09-2.77-2.01c-21.25,0.91-42.51,1.83-63.76,2.74
				c-34.06,1.47-68.12,2.93-102.18,4.4c-7.77,0.33-15.54,0.67-23.31,1c-2.03,0.09-6.61,0.85-7.75,2.8
				C-0.64,17.98,1.57,18.03,3.31,17.96L3.31,17.96z"/>
		</g>
	</g>
	<g>
		<g>
			<path class="st0" d="M2.07,19.93c20.96,2.02,41.93,4.04,62.89,6.07c2.67,0.26,6.17-0.26,8.2-2.2c1.54-1.47,1.62-3.44-0.99-3.69
				c-20.96-2.02-41.93-4.04-62.89-6.07c-2.67-0.26-6.17,0.26-8.2,2.2C-0.46,17.71-0.54,19.68,2.07,19.93L2.07,19.93z"/>
		</g>
	</g>
</g>
</svg>
