<svg id="67e9b7fc-5b26-4728-b51f-8fc67d68e4b0" data-name="Layer 1" xmlns="http://www.w3.org/2000/svg" viewBox="0 0 61 14">
  <title>scribble</title>
  <path d="M58.993,1.086C52.058,2.7,45.132,4.457,38.13,5.774c-.479.09-.958.177-1.439.256-.212.035-.423.069-.635.1s-.817.1-.26.04a14.28,14.28,0,0,1-1.765.128c-.1,0-.2-.019-.3-.016-.158,0,.482.129.141.014a.8.8,0,0,0-.2-.057c.238-.055.455.214.281.113-.2-.118.292.244.234.185-.176-.179.271.392.157.208a1.193,1.193,0,0,1,.176.614c0-.134-.11.541-.029.256.068-.243-.257.416-.071.168.044-.059.084-.131.122-.194.186-.313-.282.316-.06.074.159-.173.313-.347.481-.512.458-.448.954-.854,1.444-1.268a3.843,3.843,0,0,0,1.366-1.843,1.937,1.937,0,0,0-1.6-2.34,7.738,7.738,0,0,0-2.692.095c-1.081.162-2.149.406-3.209.665C27.232,3.2,24.23,4.105,21.24,5.027c-3.5,1.078-6.977,2.208-10.452,3.35-2.52.829-5.04,1.839-7.635,2.422-.131.03-.263.053-.394.08-.4.084.428,0,.035,0a1.084,1.084,0,0,0-.235,0,1.072,1.072,0,0,1,.621.167,1.455,1.455,0,0,1,.669,1.627c.058-.219-.249.482-.089.223.014-.023-.346.36-.107.147.077-.068.147-.143.225-.211s.161-.132.242-.2c.242-.2-.217.156-.134.1.063-.043.123-.092.185-.137.256-.185.517-.363.78-.537.675-.446,1.366-.87,2.061-1.285C10.292,8.813,13.668,7,17.05,5.219c1.022-.54,2.091-1.026,3.079-1.627a3.414,3.414,0,0,0,1.2-1.066,1.657,1.657,0,0,0-.62-2.279A2.3,2.3,0,0,0,19.4.01a21.42,21.42,0,0,0-3.855.811c-2.722.732-5.414,1.573-8.1,2.425q-3.144,1-6.276,2.036A1.6,1.6,0,0,0,.056,7.2,1.61,1.61,0,0,0,2.011,8.294C5.7,7.076,9.4,5.875,13.118,4.766c1.826-.544,3.663-1.1,5.529-1.491.235-.05.471-.094.708-.135.339-.06.1,0-.116.011.077,0,.155-.019.233-.024a1.58,1.58,0,0,0,.315,0c-.3.1-.75-.192-.956-.395A1.5,1.5,0,0,1,18.576.967c-.076.127.369-.431.129-.182-.261.272.3-.2.137-.1-.068.041-.131.09-.2.133-.831.533-1.756.942-2.629,1.4C12.679,3.977,9.352,5.759,6.1,7.666A38.306,38.306,0,0,0,2,10.324,3.783,3.783,0,0,0,.988,11.363,1.726,1.726,0,0,0,2.05,13.935,4.545,4.545,0,0,0,4.056,13.8c.954-.22,1.888-.528,2.816-.836,3.387-1.121,6.774-2.242,10.171-3.334C20.372,8.559,23.71,7.51,27.075,6.553A64.707,64.707,0,0,1,34.409,4.8c.366-.06-.394.041-.042,0,.094-.01.188-.022.282-.031.176-.016.353-.029.53-.032.126,0,.258.016.383.008.259-.016-.441-.085-.211-.03a1.1,1.1,0,0,1,.158.038,1.413,1.413,0,0,1-.464-.268,1.232,1.232,0,0,1-.339-1.263c-.081.343.191-.425.048-.108-.018.041-.093.1-.1.139.012-.143.3-.335.067-.1a30.623,30.623,0,0,0-2.706,2.574c-.812,1.034-1.025,2.647.376,3.349,1.193.6,2.7.319,3.96.147,2.149-.291,4.274-.748,6.392-1.2,3.456-.744,6.9-1.545,10.343-2.346q3.375-.783,6.747-1.572a1.578,1.578,0,0,0,1.11-1.921,1.619,1.619,0,0,0-1.954-1.091Z" style="fill: #e9e9e9"/>
</svg>
